<svg width="120" height="22" viewBox="0 0 120 22" fill="none" xmlns="http://www.w3.org/2000/svg">
<path d="M7.39571 17.4006C4.9499 17.4469 3.01783 16.5887 1.59748 14.8258C0.17915 13.063 -0.296313 10.9879 0.175121 8.60454C0.565968 6.19096 1.68008 4.19845 3.51545 2.63103C5.36492 1.06361 7.49846 0.279907 9.91204 0.279907C11.4654 0.279907 12.8091 0.620387 13.9454 1.30336C15.0817 1.98634 15.9319 2.94532 16.498 4.18435L13.5344 5.73564C12.7971 4.19845 11.4875 3.43086 9.60581 3.43086C8.02227 3.43086 6.65834 3.93251 5.51401 4.93582C4.35355 5.95524 3.64842 7.25672 3.39658 8.84026C3.11453 10.4077 3.36435 11.7011 4.15007 12.7205C4.91766 13.7238 6.07006 14.2255 7.60725 14.2255C9.6461 14.2255 11.2377 13.4257 12.382 11.826L15.0394 13.5425C14.1308 14.7352 13.0046 15.674 11.6648 16.3651C10.325 17.0561 8.90067 17.4006 7.39571 17.4006Z" fill="#1D1E1C"/>
<path d="M26.7042 6.88806L26.9863 5.31258H30.0204L27.9513 17.0722H24.9172L25.1046 15.9904C24.0851 16.9312 22.7837 17.4006 21.2001 17.4006C19.4433 17.4006 18.1277 16.7499 17.2493 15.4484C16.3871 14.163 16.1211 12.65 16.4495 10.9093C16.7638 9.23112 17.5153 7.82891 18.708 6.69868C19.9148 5.55435 21.3734 4.98218 23.0818 4.98218C24.7903 4.98218 25.9507 5.6168 26.7042 6.88806ZM22.141 14.5076C23.0496 14.5076 23.8575 14.2174 24.5626 13.6372C25.2677 13.057 25.7231 12.3055 25.9265 11.3788L25.9729 11.002C26.0978 10.0612 25.9024 9.30567 25.3846 8.73149C24.8668 8.15932 24.1536 7.87324 23.245 7.87324C22.3364 7.87324 21.4842 8.17141 20.7871 8.76775C20.09 9.36409 19.6549 10.1639 19.4816 11.1672C19.3083 12.1544 19.4735 12.9583 19.9752 13.5788C20.4769 14.1993 21.1981 14.5076 22.139 14.5076H22.141Z" fill="#1D1E1C"/>
<path d="M35.8288 5.31258L35.5004 7.19428C36.3465 5.75177 37.6641 5.04664 39.4511 5.07686L38.8629 8.46352C38.0006 8.3225 37.1665 8.49173 36.3586 8.96921C35.5507 9.4487 35.0209 10.2364 34.7711 11.3324L33.7597 17.0702H30.7256L32.7947 5.31056H35.8288V5.31258Z" fill="#1D1E1C"/>
<path d="M52.222 0.608276L51.6821 3.71289H44.8624L44.2278 7.24058H50.4833L49.9192 10.2747H43.71L43.0512 13.9676H49.9897L49.4498 17.0722H39.2656L42.1587 0.61029H52.224L52.222 0.608276Z" fill="#1D1E1C"/>
<path d="M60.7121 5.31262H64.3103L59.1366 11.1693L62.4286 17.0723H59.1366L57.1139 13.4499L53.9146 17.0723H50.3164L55.7258 10.9577L52.5749 5.31262H55.8668L57.7485 8.67511L60.7121 5.31262Z" fill="#1D1E1C"/>
<path d="M72.7294 4.98413C74.3915 4.98413 75.6688 5.63487 76.5634 6.93635C77.472 8.22171 77.7863 9.71861 77.5042 11.4291C77.2383 13.1234 76.517 14.5337 75.3405 15.6619C74.1337 16.8223 72.6912 17.4026 71.0129 17.4026C69.3347 17.4026 68.0332 16.7438 67.2495 15.4262L66.1435 21.7764H63.1094L66.0024 5.31454H69.0365L68.825 6.53744C69.8605 5.5019 71.16 4.98614 72.7294 4.98614V4.98413ZM74.4701 11.2175C74.6434 10.2303 74.4822 9.42648 73.9886 8.80596C73.495 8.18746 72.7778 7.8772 71.8369 7.8772C70.8961 7.8772 70.1466 8.1512 69.4496 8.7012C68.7525 9.24919 68.2851 9.97045 68.0494 10.865L67.9547 11.4532C67.8439 12.378 68.0534 13.1194 68.5772 13.6754C69.103 14.2315 69.8203 14.5095 70.7289 14.5095C71.6375 14.5095 72.4615 14.2194 73.1505 13.6392C73.8556 13.0428 74.2948 12.237 74.4681 11.2175H74.4701Z" fill="#1D1E1C"/>
<path d="M91.2847 11.1913C91.2686 11.5056 91.1598 11.9206 90.9563 12.4384H82.0656C82.128 13.1758 82.4101 13.7278 82.9117 14.0965C83.4134 14.4652 84.0722 14.6485 84.8881 14.6485C86.0647 14.6485 87.0277 14.2496 87.7812 13.4498L89.9208 15.1663C88.6032 16.6551 86.8484 17.4006 84.6524 17.4006C82.6921 17.4006 81.2113 16.7821 80.208 15.543C79.2047 14.304 78.8521 12.7769 79.1503 10.9576C79.4001 9.24919 80.2 7.82885 81.5498 6.70063C82.8815 5.5563 84.4187 4.98413 86.1594 4.98413C87.9 4.98413 89.2559 5.58853 90.2753 6.79532C91.2787 7.98801 91.6151 9.45267 91.2867 11.1934L91.2847 11.1913ZM82.4886 10.0631H88.4621C88.446 9.29553 88.2143 8.71128 87.7691 8.31036C87.3238 7.90944 86.7235 7.70998 85.97 7.70998C84.3381 7.70998 83.1797 8.49369 82.4886 10.0611V10.0631Z" fill="#1D1E1C"/>
<path d="M97.3991 5.31258L97.0707 7.19428C97.9168 5.75177 99.2344 5.04664 101.021 5.07686L100.433 8.46352C99.5709 8.3225 98.7368 8.49173 97.9289 8.96921C97.121 9.4487 96.5912 10.2364 96.3414 11.3324L95.33 17.0702H92.2959L94.365 5.31056H97.3991V5.31258Z" fill="#1D1E1C"/>
<path d="M109.3 8.22979H106.667L105.797 13.1214C105.702 13.7016 105.823 14.0623 106.161 14.2033C106.498 14.3443 107.193 14.3846 108.242 14.3201L107.773 17.0722C105.797 17.3079 104.398 17.1044 103.574 16.4597C102.75 15.8171 102.48 14.705 102.763 13.1194L103.633 8.22778H101.586L102.104 5.31053H104.126L104.55 2.93523L107.749 2.01855L107.161 5.31053H109.842L109.302 8.22778L109.3 8.22979Z" fill="#1D1E1C"/>
<path d="M114.192 17.4006C111.792 17.4006 110.201 16.4355 109.417 14.5075L112.145 13.1436C112.443 14.1469 113.211 14.6485 114.45 14.6485C115.469 14.6485 116.041 14.3423 116.166 13.7318C116.212 13.4337 116.067 13.1839 115.731 12.9784C115.395 12.7749 114.881 12.5714 114.19 12.3659C113.688 12.241 113.249 12.0959 112.872 11.9307C112.495 11.7655 112.115 11.5399 111.732 11.2477C111.347 10.9576 111.077 10.5728 110.92 10.0954C110.763 9.61788 110.739 9.06385 110.849 8.43728C111.069 7.32518 111.625 6.47701 112.52 5.89678C113.444 5.28432 114.48 4.9801 115.624 4.9801C116.644 4.9801 117.536 5.1997 118.306 5.6389C119.073 6.0781 119.637 6.68855 119.998 7.47427L117.27 8.8382C116.988 8.05449 116.384 7.66163 115.459 7.66163C114.534 7.66163 114.025 7.99808 113.884 8.673C113.837 9.00139 113.978 9.27337 114.307 9.48491C114.635 9.69645 115.137 9.88785 115.812 10.0611C116.343 10.186 116.795 10.319 117.163 10.46C117.532 10.601 117.917 10.8166 118.316 11.1067C118.717 11.3968 118.991 11.7816 119.14 12.2591C119.289 12.7386 119.301 13.3047 119.176 13.9635C118.989 15.0776 118.447 15.9278 117.552 16.5161C116.658 17.1044 115.538 17.3985 114.19 17.3985L114.192 17.4006Z" fill="#1D1E1C"/>
</svg>
