<svg width="26" height="33" viewBox="0 0 26 33" fill="none" xmlns="http://www.w3.org/2000/svg">
<path d="M23.7707 22.2994C23.404 22.0661 23.004 21.9661 22.5707 21.9661C21.8707 21.9661 20.1708 22.3327 19.1041 25.5993C17.1375 24.6993 14.9042 24.1993 12.6043 24.1993C10.3043 24.1993 8.07104 24.666 6.10442 25.5993C5.00444 22.3327 3.33781 21.9661 2.63782 21.9661C2.23783 21.9661 1.83785 22.0661 1.43786 22.2994C-0.128769 23.2327 -0.428762 25.5993 0.604547 29.5659C0.837875 30.4992 1.13786 31.3659 1.47119 32.1658C1.57118 32.3992 1.80452 32.5325 2.03784 32.5325H23.1373C23.3707 32.5325 23.604 32.3992 23.704 32.1658C24.0373 31.3659 24.3373 30.4992 24.5707 29.5659C25.604 25.5993 25.3373 23.2327 23.7707 22.2994ZM23.3707 29.2326C23.1707 29.9659 22.9707 30.6325 22.704 31.2659H2.43784C2.17118 30.6325 1.97118 29.9659 1.77119 29.2326C0.937873 25.966 1.00454 23.966 2.00452 23.366C2.17118 23.266 2.37118 23.1994 2.57118 23.1994C3.30449 23.1994 4.37112 24.0993 5.03777 26.6326C5.10444 26.8326 5.20445 26.966 5.40444 27.0326C5.57111 27.0993 5.77109 27.0993 5.93776 26.9993C7.87104 25.966 10.171 25.3993 12.5376 25.3993C14.9042 25.3993 17.2041 25.9327 19.1374 26.9993C19.3041 27.0993 19.5041 27.0993 19.6708 27.0326C19.8374 26.966 19.9708 26.7993 20.0374 26.6326C20.7374 24.0993 21.7707 23.1994 22.504 23.1994C22.704 23.1994 22.8707 23.266 23.0707 23.366C24.1373 23.966 24.2373 25.9993 23.3707 29.2326Z" fill="#4D4D4D"/>
<path d="M8.53758 12.4998C8.27092 12.2665 7.90427 12.2998 7.67094 12.5331C7.43761 12.7998 7.47094 13.1998 7.70427 13.4331C7.7376 13.4664 10.1709 15.7997 10.1709 22.1329C10.1709 22.4662 10.4375 22.7662 10.8042 22.7662C11.1375 22.7662 11.4375 22.4996 11.4375 22.1329C11.4042 15.1664 8.67091 12.5998 8.53758 12.4998Z" fill="#4D4D4D"/>
<path d="M16.6708 12.4997C16.5375 12.5997 13.8042 15.1662 13.8042 22.1328C13.8042 22.4661 14.0709 22.7661 14.4375 22.7661C14.7709 22.7661 15.0709 22.4994 15.0709 22.1328C15.0709 15.7996 17.4708 13.4663 17.5374 13.433C17.8041 13.1996 17.8041 12.7996 17.5708 12.533C17.3041 12.2663 16.9041 12.2663 16.6708 12.4997Z" fill="#4D4D4D"/>
<path d="M3.93783 20.6328C4.27116 20.6328 4.57116 20.3662 4.57116 19.9995V11.2997C4.57116 9.26644 6.23778 7.59982 8.27106 7.59982H16.9375C18.9708 7.59982 20.6374 9.26644 20.6374 11.2997V19.9995C20.6374 20.3329 20.9041 20.6328 21.2708 20.6328C21.6041 20.6328 21.9041 20.3662 21.9041 19.9995V11.2997C21.9041 8.86645 20.1375 6.8665 17.8375 6.43318C18.1375 5.99986 18.3375 5.46654 18.3375 4.89989V2.69993C18.3375 1.19996 17.1042 0 15.6375 0H9.63769C8.13772 0 6.93776 1.2333 6.93776 2.69993V4.89989C6.93776 5.46654 7.10442 5.99986 7.43775 6.43318C5.1378 6.8665 3.37117 8.86645 3.37117 11.2997V19.9995C3.30451 20.3662 3.60451 20.6328 3.93783 20.6328ZM8.13772 2.73327C8.13772 1.93329 8.80438 1.26663 9.60437 1.26663H15.6042C16.4042 1.26663 17.0709 1.93329 17.0709 2.73327V4.93321C17.0709 5.73319 16.4042 6.39985 15.6042 6.39985H9.60437C8.80438 6.39985 8.13772 5.73319 8.13772 4.93321V2.73327Z" fill="#4D4D4D"/>
</svg>
