<svg width="77" height="77" viewBox="0 0 77 77" fill="none" xmlns="http://www.w3.org/2000/svg">
<circle cx="38.5" cy="38.5" r="38.5" fill="#4E2EE1"/>
<path d="M50.7609 34.1746L59.8889 30.5346L46.2743 24.1111L37.0302 27.6856M50.7609 34.1746V38.3499M50.7609 34.1746L37.0302 27.6856M50.7609 46.8076L59.8889 43.2389M50.7609 46.8076V42.5252M50.7609 46.8076L41.5556 50.3714M50.7609 42.5252L59.8889 39.0993M50.7609 42.5252V38.3499M50.7609 38.3499L59.8889 34.8883M17.1111 48.0923L31.0352 54.4444L41.5556 50.3714M41.5556 50.3714V46.3056M41.5556 37.6719L31.0352 41.8115L17.1111 35.3879L27.7862 31.2601M41.5556 37.6719L27.7862 31.2601M41.5556 37.6719V42.2397M27.7862 31.2601L37.0302 27.6856M41.5556 42.2397L31.0352 46.0225L17.1111 39.5989M41.5556 42.2397V46.3056M41.5556 46.3056L31.0352 50.3714L17.1111 43.8813" stroke="white" stroke-width="2" stroke-linecap="round" stroke-linejoin="round"/>
</svg>
