<svg width="35" height="35" viewBox="0 0 35 35" fill="none" xmlns="http://www.w3.org/2000/svg">
<circle cx="17.5" cy="17.5" r="17.5" fill="white"/>
<path d="M23.519 15.3082L28 13.3882L21.3165 10L16.7785 11.8854M23.519 15.3082V17.5106M23.519 15.3082L16.7785 11.8854M23.519 21.9718L28 20.0894M23.519 21.9718V19.7129M23.519 21.9718L19 23.8516M23.519 19.7129L28 17.9059M23.519 19.7129V17.5106M23.519 17.5106L28 15.6847M7 22.6494L13.8354 26L19 23.8516M19 23.8516V21.707M19 17.1529L13.8354 19.3365L7 15.9482L12.2405 13.7709M19 17.1529L12.2405 13.7709M19 17.1529V19.5624M12.2405 13.7709L16.7785 11.8854M19 19.5624L13.8354 21.5576L7 18.1694M19 19.5624V21.707M19 21.707L13.8354 23.8516L7 20.4282" stroke="black" stroke-linecap="round" stroke-linejoin="round"/>
</svg>
